<?xml version="1.0" encoding="UTF-8"?>
<svg id="Layer_3" data-name="Layer 3" xmlns="http://www.w3.org/2000/svg" viewBox="0 0 1713.35 1131.65">
  <defs>
    <style>
      .cls-1, .cls-2 {
        stroke-width: 0px;
      }

      .cls-2 {
        fill: #fff;
      }
    </style>
  </defs>
  <rect class="cls-2" width="1713.35" height="1131.65"/>
  <g>
    <path class="cls-1" d="M624.05,433.42c-12.78,0-18.38,10.36-18.38,23.15s5.6,23.15,18.38,23.15h50.99c12.78,0,16.8-10.36,16.8-23.15s-4.02-23.15-16.8-23.15h-50.99Z"/>
    <path class="cls-1" d="M1140.82,394.03l-32.93-71.83-.23-.88c-1.33-5.08-5.75-18.11-17.91-29.23-11.8-10.79-27.11-16.26-45.52-16.26h-221.11c-18.41,0-33.72,5.47-45.52,16.26-12.16,11.12-16.58,24.15-17.91,29.23l-.24.91-25.39,54.4h-123.34c-.2,0-.45,0-.74,0-5.67,0-35.15,1.15-58.54,23.85-18.51,17.96-27.89,43.99-27.89,77.38v284.67l.02.99c.94,18.96,9.15,39.05,21.99,53.75,7.66,8.77,16.8,15.82,27.39,20.47,34.46,15.11,88.65,15.11,88.65,15.11h188.31l1.53-6.83c-17.75-.96-173.2-2.21-189.73-3.36-14.07-.98-30.36-2.49-45.75-7.97-32.57-11.59-47.6-31.51-54.47-46.18-2.81-6.01-4.68-12.54-5.69-19.96-1.06-7.77-1.06-15.69-1.06-22.68v-268.01c0-24.31,6.04-42.66,17.95-54.53,14.22-14.18,33.3-15.4,36.98-15.5h.14s144.05,0,144.05,0l36.17-79.35c.71-2.7,2.44-7.25,6.57-11.58,4.3-4.5,12.39-9.87,26.52-9.87h221.11c24.07,0,31.14,15.29,33.01,21.44l36.24,79.36h148.86v-3.86l-121.52-9.94Z"/>
    <path class="cls-1" d="M929.49,486.64c-19.55,0-38.04,4.6-54.46,12.77-.02,0-.04.02-.05.02-18.79,8.48-32.99,23.1-42.1,34.77-6.12,7.84-9.94,14.36-11.3,16.8,10.09.95,23.84,2.85,40.08,6.59,2.71.62,5.49,1.31,8.33,2.04-.08.17-.17.33-.25.5-3.12,6.46-5.35,13.45-6.53,20.79-.27,1.7-.49,3.42-.65,5.16-.21,2.31-.32,4.64-.32,7.01,0,6.1.72,12.03,2.07,17.7,4.69-10.33,15.1-17.51,27.18-17.51,16.48,0,29.84,13.36,29.84,29.83s-13.34,29.82-29.81,29.83c12.44,9.6,27.96,15.3,44.79,15.3,20.22,0,38.53-8.24,51.89-21.57,1.37-1.37,2.69-2.79,3.96-4.27,1.23-1.44,2.41-2.92,3.54-4.45,2.55-3.47,4.82-7.17,6.76-11.07,11.42,9.37,22.75,19.88,33.8,31.67,1.24,1.38,2.48,2.78,3.71,4.2,0,0,.02-.04.06-.12.46-.87,3.4-6.6,6.67-17.44,1.04-3.43,2.11-7.37,3.14-11.84.21-.89.37-1.76.49-2.62,1.23-6.95,1.87-14.1,1.87-21.4,0-67.67-55.05-122.72-122.72-122.72Z"/>
    <path class="cls-1" d="M936.31,720.98c-69.5,0-126.04-57.37-126.04-127.89,0-5.82.39-11.54,1.13-17.16-3.02,10.63-4.64,21.84-4.64,33.43,0,67.67,55.05,122.72,122.72,122.72,43.79,0,82.29-23.06,104.01-57.67-23.13,28.42-58.12,46.57-97.2,46.57Z"/>
    <path class="cls-1" d="M929.49,411.54c-89.98,0-166.12,60.39-190.02,142.78-7.82,21.25-12.09,44.2-12.09,68.13,0,109.08,88.74,197.82,197.82,197.82,89.98,0,166.12-60.4,190.02-142.78,7.82-21.25,12.09-44.2,12.09-68.13,0-109.08-88.74-197.82-197.82-197.82ZM1103.26,673.53c-26.16,70.6-94.18,121.06-173.77,121.06-102.14,0-185.23-83.1-185.23-185.24,0-17.71,2.5-34.85,7.16-51.08,20.29-70.64,81.58-124.11,156.33-132.88,7.13-.84,14.39-1.27,21.74-1.27,48.89,0,93.42,19.04,126.55,50.09,36.1,33.82,58.68,81.89,58.68,135.15,0,22.55-4.05,44.17-11.46,64.17Z"/>
  </g>
</svg>